<?xml version="1.0" encoding="UTF-8"?>
<svg xmlns="http://www.w3.org/2000/svg" xmlns:xlink="http://www.w3.org/1999/xlink" width="256px" height="256px" viewBox="0 0 256 256" version="1.1">
<g id="surface1">
<path style="fill:none;stroke-width:1;stroke-linecap:butt;stroke-linejoin:miter;stroke:rgb(0%,0%,0%);stroke-opacity:1;stroke-miterlimit:4;" d="M 450 150 C 450 232.846069 382.846069 300 300 300 C 217.153931 300 150 232.846069 150 150 C 150 67.153931 217.153931 0 300 0 C 382.846069 0 450 67.153931 450 150 Z M 450 150 " transform="matrix(0.426667,0,0,0.426667,0,0)"/>
<path style="fill:none;stroke-width:1;stroke-linecap:butt;stroke-linejoin:miter;stroke:rgb(0%,0%,0%);stroke-opacity:1;stroke-miterlimit:4;" d="M 450.008331 150.000229 C 449.998442 232.842822 382.838559 299.992531 300.000705 300.000329 C 217.160481 299.999283 150.013142 232.848244 150.000605 149.992703 C 150.001651 67.152479 217.161534 0.00277005 299.990545 -0.00265817 C 382.848455 -0.00635178 450.000533 67.162374 450.008331 150.000229 Z M 450.008331 150.000229 " transform="matrix(0.412128,0.11043,-0.11043,0.412128,37.490331,-28.767343)"/>
<path style="fill:none;stroke-width:1;stroke-linecap:butt;stroke-linejoin:miter;stroke:rgb(0%,0%,0%);stroke-opacity:1;stroke-miterlimit:4;" d="M 450.000784 149.999369 C 450.006345 232.845915 382.84712 299.994593 300.000574 300.000154 C 217.154027 300.005715 149.997421 232.851067 149.999789 149.999943 C 149.998805 67.161326 217.148875 -0.00320942 299.999999 -0.000841861 C 382.846545 -0.00640301 450.007729 67.156173 450.000784 149.999369 Z M 450.000784 149.999369 " transform="matrix(0.369504,0.213333,-0.213333,0.369504,81.148749,-46.851251)"/>
<path style="fill:none;stroke-width:1;stroke-linecap:butt;stroke-linejoin:miter;stroke:rgb(0%,0%,0%);stroke-opacity:1;stroke-miterlimit:4;" d="M 449.996149 150.002816 C 449.989675 232.847328 382.837521 299.999482 299.999482 299.999482 C 217.161444 299.999482 150.00929 232.847328 150.002816 150.002816 C 150.002816 67.164778 217.154971 0.0126234 299.999482 0.00614963 C 382.843994 0.0126234 449.996149 67.164778 449.996149 150.002816 Z M 449.996149 150.002816 " transform="matrix(0.301699,0.301699,-0.301699,0.301699,128,-53.019336)"/>
<path style="fill:none;stroke-width:1;stroke-linecap:butt;stroke-linejoin:miter;stroke:rgb(0%,0%,0%);stroke-opacity:1;stroke-miterlimit:4;" d="M 450.000939 150.000363 C 450.003306 232.851487 382.8467 300.006135 300.000154 300.000574 C 217.153607 299.995013 149.994382 232.846335 149.999943 149.999789 C 149.992998 67.156593 217.154182 -0.00598301 300.000729 -0.00042186 C 382.851852 -0.00278942 450.001922 67.161746 450.000939 150.000363 Z M 450.000939 150.000363 " transform="matrix(0.213333,0.369504,-0.369504,0.213333,174.851251,-46.851251)"/>
<path style="fill:none;stroke-width:1;stroke-linecap:butt;stroke-linejoin:miter;stroke:rgb(0%,0%,0%);stroke-opacity:1;stroke-miterlimit:4;" d="M 450.000429 149.993079 C 449.987892 232.84862 382.840553 299.99966 300.000329 300.000705 C 217.162474 299.992907 150.002592 232.843199 149.992703 150.000605 C 149.991657 67.160381 217.152579 -0.00597538 300.010489 -0.00228178 C 382.8395 0.00314645 449.999383 67.152855 450.000429 149.993079 Z M 450.000429 149.993079 " transform="matrix(0.11043,0.412128,-0.412128,0.11043,218.509669,-28.767343)"/>
<path style="fill:none;stroke-width:1;stroke-linecap:butt;stroke-linejoin:miter;stroke:rgb(0%,0%,0%);stroke-opacity:1;stroke-miterlimit:4;" d="M 450 150 C 450 232.846069 382.846069 300 300 300 C 217.153931 300 150 232.846069 150 150 C 150 67.153931 217.153931 0 300 0 C 382.846069 0 450 67.153931 450 150 Z M 450 150 " transform="matrix(0.000000000000000026,0.426667,-0.426667,0.000000000000000026,256,0)"/>
<path style="fill:none;stroke-width:1;stroke-linecap:butt;stroke-linejoin:miter;stroke:rgb(0%,0%,0%);stroke-opacity:1;stroke-miterlimit:4;" d="M 450.008331 150.000229 C 449.998442 232.842822 382.838559 299.992531 300.000705 300.000329 C 217.160481 299.999283 150.013142 232.848244 150.000605 149.992703 C 150.001651 67.152479 217.161534 0.00277005 299.990545 -0.00265817 C 382.848455 -0.00635178 450.000533 67.162374 450.008331 150.000229 Z M 450.008331 150.000229 " transform="matrix(-0.11043,0.412128,-0.412128,-0.11043,284.767343,37.490331)"/>
<path style="fill:none;stroke-width:1;stroke-linecap:butt;stroke-linejoin:miter;stroke:rgb(0%,0%,0%);stroke-opacity:1;stroke-miterlimit:4;" d="M 450.000784 149.999369 C 450.006345 232.845915 382.84712 299.994593 300.000574 300.000154 C 217.154027 300.005715 149.997421 232.851067 149.999789 149.999943 C 149.998805 67.161326 217.148875 -0.00320942 299.999999 -0.000841861 C 382.846545 -0.00640301 450.007729 67.156173 450.000784 149.999369 Z M 450.000784 149.999369 " transform="matrix(-0.213333,0.369504,-0.369504,-0.213333,302.851251,81.148749)"/>
<path style="fill:none;stroke-width:1;stroke-linecap:butt;stroke-linejoin:miter;stroke:rgb(0%,0%,0%);stroke-opacity:1;stroke-miterlimit:4;" d="M 449.996149 150.002816 C 449.989675 232.847328 382.837521 299.999482 299.999482 299.999482 C 217.161444 299.999482 150.00929 232.847328 150.002816 150.002816 C 150.002816 67.164778 217.154971 0.0126234 299.999482 0.00614963 C 382.843994 0.0126234 449.996149 67.164778 449.996149 150.002816 Z M 449.996149 150.002816 " transform="matrix(-0.301699,0.301699,-0.301699,-0.301699,309.019336,128)"/>
<path style="fill:none;stroke-width:1;stroke-linecap:butt;stroke-linejoin:miter;stroke:rgb(0%,0%,0%);stroke-opacity:1;stroke-miterlimit:4;" d="M 450.000939 150.000363 C 450.003306 232.851487 382.8467 300.006135 300.000154 300.000574 C 217.153607 299.995013 149.994382 232.846335 149.999943 149.999789 C 149.992998 67.156593 217.154182 -0.00598301 300.000729 -0.00042186 C 382.851852 -0.00278942 450.001922 67.161746 450.000939 150.000363 Z M 450.000939 150.000363 " transform="matrix(-0.369504,0.213333,-0.213333,-0.369504,302.851251,174.851251)"/>
<path style="fill:none;stroke-width:1;stroke-linecap:butt;stroke-linejoin:miter;stroke:rgb(0%,0%,0%);stroke-opacity:1;stroke-miterlimit:4;" d="M 450.000429 149.993079 C 449.987892 232.84862 382.840553 299.99966 300.000329 300.000705 C 217.162474 299.992907 150.002592 232.843199 149.992703 150.000605 C 149.991657 67.160381 217.152579 -0.00597538 300.010489 -0.00228178 C 382.8395 0.00314645 449.999383 67.152855 450.000429 149.993079 Z M 450.000429 149.993079 " transform="matrix(-0.412128,0.11043,-0.11043,-0.412128,284.767343,218.509669)"/>
<path style="fill:none;stroke-width:1;stroke-linecap:butt;stroke-linejoin:miter;stroke:rgb(0%,0%,0%);stroke-opacity:1;stroke-miterlimit:4;" d="M 450 150 C 450 232.846069 382.846069 300 300 300 C 217.153931 300 150 232.846069 150 150 C 150 67.153931 217.153931 0.000000000000113687 300 0.000000000000113687 C 382.846069 0.000000000000113687 450 67.153931 450 150 Z M 450 150 " transform="matrix(-0.426667,0.000000000000000053,-0.000000000000000053,-0.426667,256,256)"/>
<path style="fill:none;stroke-width:1;stroke-linecap:butt;stroke-linejoin:miter;stroke:rgb(0%,0%,0%);stroke-opacity:1;stroke-miterlimit:4;" d="M 450.008331 150.000229 C 449.998442 232.842822 382.838559 299.992531 300.000705 300.000329 C 217.160481 299.999283 150.013142 232.848244 150.000605 149.992703 C 150.001651 67.152479 217.161534 0.00277005 299.990545 -0.00265817 C 382.848455 -0.00635178 450.000533 67.162374 450.008331 150.000229 Z M 450.008331 150.000229 " transform="matrix(-0.412128,-0.11043,0.11043,-0.412128,218.509669,284.767343)"/>
<path style="fill:none;stroke-width:1;stroke-linecap:butt;stroke-linejoin:miter;stroke:rgb(0%,0%,0%);stroke-opacity:1;stroke-miterlimit:4;" d="M 450.000784 149.999369 C 450.006345 232.845915 382.84712 299.994593 300.000574 300.000154 C 217.154027 300.005715 149.997421 232.851067 149.999789 149.999943 C 149.998805 67.161326 217.148875 -0.00320942 299.999999 -0.000841861 C 382.846545 -0.00640301 450.007729 67.156173 450.000784 149.999369 Z M 450.000784 149.999369 " transform="matrix(-0.369504,-0.213333,0.213333,-0.369504,174.851251,302.851251)"/>
<path style="fill:none;stroke-width:1;stroke-linecap:butt;stroke-linejoin:miter;stroke:rgb(0%,0%,0%);stroke-opacity:1;stroke-miterlimit:4;" d="M 449.996149 150.002816 C 449.989675 232.847328 382.837521 299.999482 299.999482 299.999482 C 217.161444 299.999482 150.00929 232.847328 150.002816 150.002816 C 150.002816 67.164778 217.154971 0.0126234 299.999482 0.00614963 C 382.843994 0.0126234 449.996149 67.164778 449.996149 150.002816 Z M 449.996149 150.002816 " transform="matrix(-0.301699,-0.301699,0.301699,-0.301699,128,309.019336)"/>
<path style="fill:none;stroke-width:1;stroke-linecap:butt;stroke-linejoin:miter;stroke:rgb(0%,0%,0%);stroke-opacity:1;stroke-miterlimit:4;" d="M 450.000939 150.000363 C 450.003306 232.851487 382.8467 300.006135 300.000154 300.000574 C 217.153607 299.995013 149.994382 232.846335 149.999943 149.999789 C 149.992998 67.156593 217.154182 -0.00598301 300.000729 -0.00042186 C 382.851852 -0.00278942 450.001922 67.161746 450.000939 150.000363 Z M 450.000939 150.000363 " transform="matrix(-0.213333,-0.369504,0.369504,-0.213333,81.148749,302.851251)"/>
<path style="fill:none;stroke-width:1;stroke-linecap:butt;stroke-linejoin:miter;stroke:rgb(0%,0%,0%);stroke-opacity:1;stroke-miterlimit:4;" d="M 450.000429 149.993079 C 449.987892 232.84862 382.840553 299.99966 300.000329 300.000705 C 217.162474 299.992907 150.002592 232.843199 149.992703 150.000605 C 149.991657 67.160381 217.152579 -0.00597538 300.010489 -0.00228178 C 382.8395 0.00314645 449.999383 67.152855 450.000429 149.993079 Z M 450.000429 149.993079 " transform="matrix(-0.11043,-0.412128,0.412128,-0.11043,37.490331,284.767343)"/>
<path style="fill:none;stroke-width:1;stroke-linecap:butt;stroke-linejoin:miter;stroke:rgb(0%,0%,0%);stroke-opacity:1;stroke-miterlimit:4;" d="M 450 150 C 450 232.846069 382.846069 300 300 300 C 217.153931 300 150 232.846069 150 150 C 150 67.153931 217.153931 -0.000000000000016888 300 -0.000000000000001644 C 382.846069 0.0000000000000136 450 67.153931 450 150 Z M 450 150 " transform="matrix(-0.000000000000000079,-0.426667,0.426667,-0.000000000000000079,0.000000000000024253,256)"/>
<path style="fill:none;stroke-width:1;stroke-linecap:butt;stroke-linejoin:miter;stroke:rgb(0%,0%,0%);stroke-opacity:1;stroke-miterlimit:4;" d="M 450.008331 150.000229 C 449.998442 232.842822 382.838559 299.992531 300.000705 300.000329 C 217.160481 299.999283 150.013142 232.848244 150.000605 149.992703 C 150.001651 67.152479 217.161534 0.00277005 299.990545 -0.00265817 C 382.848455 -0.00635178 450.000533 67.162374 450.008331 150.000229 Z M 450.008331 150.000229 " transform="matrix(0.11043,-0.412128,0.412128,0.11043,-28.767343,218.509669)"/>
<path style="fill:none;stroke-width:1;stroke-linecap:butt;stroke-linejoin:miter;stroke:rgb(0%,0%,0%);stroke-opacity:1;stroke-miterlimit:4;" d="M 450.000784 149.999369 C 450.006345 232.845915 382.84712 299.994593 300.000574 300.000154 C 217.154027 300.005715 149.997421 232.851067 149.999789 149.999943 C 149.998805 67.161326 217.148875 -0.00320942 299.999999 -0.000841861 C 382.846545 -0.00640301 450.007729 67.156173 450.000784 149.999369 Z M 450.000784 149.999369 " transform="matrix(0.213333,-0.369504,0.369504,0.213333,-46.851251,174.851251)"/>
<path style="fill:none;stroke-width:1;stroke-linecap:butt;stroke-linejoin:miter;stroke:rgb(0%,0%,0%);stroke-opacity:1;stroke-miterlimit:4;" d="M 449.996149 150.002816 C 449.989675 232.847328 382.837521 299.999482 299.999482 299.999482 C 217.161444 299.999482 150.00929 232.847328 150.002816 150.002816 C 150.002816 67.164778 217.154971 0.0126234 299.999482 0.00614963 C 382.843994 0.0126234 449.996149 67.164778 449.996149 150.002816 Z M 449.996149 150.002816 " transform="matrix(0.301699,-0.301699,0.301699,0.301699,-53.019336,128)"/>
<path style="fill:none;stroke-width:1;stroke-linecap:butt;stroke-linejoin:miter;stroke:rgb(0%,0%,0%);stroke-opacity:1;stroke-miterlimit:4;" d="M 450.000939 150.000363 C 450.003306 232.851487 382.8467 300.006135 300.000154 300.000574 C 217.153607 299.995013 149.994382 232.846335 149.999943 149.999789 C 149.992998 67.156593 217.154182 -0.00598301 300.000729 -0.00042186 C 382.851852 -0.00278942 450.001922 67.161746 450.000939 150.000363 Z M 450.000939 150.000363 " transform="matrix(0.369504,-0.213333,0.213333,0.369504,-46.851251,81.148749)"/>
<path style="fill:none;stroke-width:1;stroke-linecap:butt;stroke-linejoin:miter;stroke:rgb(0%,0%,0%);stroke-opacity:1;stroke-miterlimit:4;" d="M 450.000429 149.993079 C 449.987892 232.84862 382.840553 299.99966 300.000329 300.000705 C 217.162474 299.992907 150.002592 232.843199 149.992703 150.000605 C 149.991657 67.160381 217.152579 -0.00597538 300.010489 -0.00228178 C 382.8395 0.00314645 449.999383 67.152855 450.000429 149.993079 Z M 450.000429 149.993079 " transform="matrix(0.412128,-0.11043,0.11043,0.412128,-28.767343,37.490331)"/>
</g>
</svg>
